<svg width="107" height="67" viewBox="0 0 107 67" fill="none" xmlns="http://www.w3.org/2000/svg">
<g clip-path="url(#clip0_3020_3)">
<path d="M0.515625 2.59697V5.19399H17.8044H35.0932V35.6905V66.187H37.6902H40.2872V33.0935V-6.10352e-05H20.4014H0.515625V2.59697Z" fill="black"/>
<path d="M45.332 33.0935V66.187H47.9291H50.5261V35.6905V5.19399H78.4998H106.473V2.59697V-6.10352e-05H75.9027H45.332V33.0935Z" fill="black"/>
<path d="M0.515625 38.1391V66.187H13.2782H26.0407V38.1391V10.0912H13.2782H0.515625V38.1391Z" fill="black"/>
<path d="M55.4219 38.1391V66.187H58.5828L61.7289 66.1722L71.286 50.2338C76.5394 41.4633 80.8876 34.2807 80.9321 34.2807C80.9766 34.2955 85.3248 41.4633 90.5782 50.2338L100.135 66.187H103.296H106.472V38.1391V10.0912H103.801H101.13L101.1 33.6129L101.055 57.1345L91.0382 40.4394C85.5325 31.2533 80.9766 23.7442 80.9173 23.7442C80.8579 23.7442 76.2871 31.2978 70.7518 40.5135L60.6901 57.2829L60.6456 33.6871L60.6159 10.0912H58.0189H55.4219V38.1391Z" fill="black"/>
</g>
<defs>
<clipPath id="clip0_3020_3">
<rect width="105.959" height="66.1871" fill="white" transform="translate(0.515625)"/>
</clipPath>
</defs>
</svg>
