<svg width="118" height="71" viewBox="0 0 118 71" fill="none" xmlns="http://www.w3.org/2000/svg">
<path d="M8 34C8 25.7157 14.7157 19 23 19H38V34H8Z" fill="#1511FE"/>
<path d="M57 18C52.2261 18 47.6477 19.8964 44.2721 23.2721C40.8964 26.6477 39 31.2261 39 36C39 40.7739 40.8964 45.3523 44.2721 48.7279C47.6477 52.1036 52.2261 54 57 54L57 36V18Z" fill="#1511FE"/>
<path d="M60 18C64.7739 18 69.3523 19.8964 72.7279 23.2721C76.1036 26.6477 78 31.2261 78 36C78 40.7739 76.1036 45.3523 72.7279 48.7279C69.3523 52.1036 64.7739 54 60 54L60 36V18Z" fill="#1511FE"/>
<path d="M86 34C86 25.7157 92.7157 19 101 19H116V34H86Z" fill="#1511FE"/>
<path d="M32 37C32 45.2843 25.2843 52 17 52H2V37H32Z" fill="#1511FE"/>
<path d="M110 37C110 45.2843 103.284 52 95 52H80V37H110Z" fill="#1511FE"/>
</svg>
